<?xml version="1.0" encoding="UTF-8" standalone="no"?><!DOCTYPE svg PUBLIC "-//W3C//DTD SVG 1.1//EN" "http://www.w3.org/Graphics/SVG/1.1/DTD/svg11.dtd"><svg width="100%" height="100%" viewBox="0 0 770 197" version="1.1" xmlns="http://www.w3.org/2000/svg" xmlns:xlink="http://www.w3.org/1999/xlink" xml:space="preserve" style="fill-rule:evenodd;clip-rule:evenodd;stroke-linejoin:round;stroke-miterlimit:1.41421;"><g><path d="M162.97,24.391c0,-4.215 -1.927,-8.19 -5.781,-11.924c-5.541,-5.3 -13.19,-7.95 -22.946,-7.95c-8.552,0 -18.008,1.867 -28.366,5.601c-5.421,1.927 -10.118,4.577 -14.093,7.95c-6.143,5.3 -9.215,10.599 -9.215,15.899c0,7.107 4.517,13.491 13.551,19.152c3.373,2.048 10.148,5.39 20.326,10.028c10.178,4.637 17.616,8.401 22.314,11.292c7.106,4.336 12.015,8.973 14.725,13.912c2.71,4.938 4.065,9.516 4.065,13.731c0,6.023 -1.987,12.166 -5.962,18.429c-6.986,11.202 -17.225,20.838 -30.715,28.909c-15.538,9.395 -34.269,14.093 -56.191,14.093c-21.079,0 -37.821,-5.361 -50.228,-16.081c-9.636,-8.19 -14.454,-18.73 -14.454,-31.618c0,-8.191 2.981,-17.225 8.944,-27.102c5.962,-9.877 13.279,-16.863 21.952,-20.958c1.807,-0.723 3.162,-0.964 4.065,-0.723c0.903,0.241 0.151,1.385 -2.258,3.433c-5.18,4.095 -9.335,8.612 -12.467,13.551c-6.745,10.599 -10.118,22.103 -10.118,34.509c0,8.191 2.288,15.358 6.866,21.501c8.19,10.961 22.404,17.164 42.639,18.609c2.289,0.241 5.692,0.362 10.209,0.362c4.517,0 10.66,-0.813 18.429,-2.44c7.769,-1.626 15.267,-4.306 22.494,-8.04c15.538,-8.19 25.596,-18.79 30.173,-31.799c1.445,-3.854 2.168,-7.588 2.168,-11.202c0,-8.19 -3.674,-15.417 -11.021,-21.681c-3.975,-3.132 -12.075,-7.317 -24.301,-12.557c-12.226,-5.24 -20.447,-9.245 -24.663,-12.015c-9.274,-6.263 -13.912,-13.671 -13.912,-22.223c0,-7.468 4.156,-14.756 12.467,-21.862c11.925,-10.118 28.788,-15.177 50.589,-15.177c10.239,0 18.58,1.536 25.024,4.607c6.444,3.072 10.389,7.679 11.834,13.822c0.241,1.205 0.362,2.409 0.362,3.614c0,4.697 -2.168,8.913 -6.505,12.647c-3.011,2.409 -7.046,4.336 -12.105,5.782c-2.168,0.602 -3.373,0.361 -3.613,-0.723c-0.241,-1.566 1.264,-2.53 4.517,-2.891c5.781,-0.723 9.334,-3.613 10.659,-8.672c0.362,-1.325 0.542,-2.59 0.542,-3.795Z" style="fill:#dd9336;fill-rule:nonzero;"/><path d="M227.653,97.927c0,5.3 -1.385,11.142 -4.156,17.525c-2.77,6.384 -6.594,12.527 -11.473,18.43c-4.878,5.902 -10.81,9.937 -17.796,12.105c-2.65,0.723 -5.692,1.084 -9.125,1.084c-3.432,0 -7.197,-1.084 -11.292,-3.252l-17.164,42.82c-1.807,3.855 -3.493,6.384 -5.059,7.589c-1.566,1.204 -3.072,1.806 -4.517,1.806c-1.445,0 -2.319,0 -2.62,0c-0.301,0 -1.385,-0.18 -3.252,-0.542c-1.867,-0.361 -3.282,-0.482 -4.246,-0.361c2.65,-2.53 9.365,-14.545 20.145,-36.045c10.781,-21.501 16.894,-35.985 18.339,-43.453c-1.325,1.927 -2.59,2.951 -3.794,3.072c-0.723,0 -0.723,-0.693 0,-2.078c0.723,-1.385 1.927,-4.065 3.614,-8.04c2.168,-5.18 3.252,-9.968 3.252,-14.364c0,-4.397 -0.843,-6.956 -2.53,-7.679c7.227,-1.204 11.443,-1.776 12.648,-1.716c1.204,0.06 1.957,0.572 2.258,1.536c0.301,0.963 0.452,2.047 0.452,3.252c0,7.347 -1.687,15.538 -5.059,24.572l3.613,-5.782c4.337,-6.986 7.498,-11.503 9.486,-13.551c1.987,-2.047 4.125,-4.155 6.414,-6.323c3.493,-3.373 6.866,-5.059 10.118,-5.059c0.963,0 1.867,0.12 2.71,0.361c6.022,1.566 9.034,6.264 9.034,14.093Zm-8.673,-1.807c0,-1.927 -0.391,-3.704 -1.174,-5.33c-0.783,-1.626 -2.018,-2.439 -3.704,-2.439c-4.216,0 -9.124,3.915 -14.725,11.744c-5.601,7.829 -13.641,21.5 -24.12,41.014c1.565,1.565 3.733,2.348 6.504,2.348c2.77,0 6.685,-2.108 11.744,-6.323c8.07,-6.746 14.815,-15.117 20.236,-25.114c3.493,-6.505 5.239,-11.805 5.239,-15.9Z" style="fill:#dd9336;fill-rule:nonzero;"/><path d="M242.107,119.247c-1.686,4.095 -2.53,8.672 -2.53,13.731c0,3.373 0.753,6.053 2.259,8.04c1.506,1.988 3.644,2.981 6.414,2.981c10.961,0 20.898,-10.298 29.812,-30.895c0.843,-1.928 1.867,-2.771 3.071,-2.53c0.482,0.121 0.723,0.422 0.723,0.904c0,0.481 -1.355,3.643 -4.065,9.485c-2.711,5.842 -5.451,10.57 -8.221,14.183c-6.143,8.432 -13.732,12.648 -22.765,12.648c-4.819,0 -8.914,-1.566 -12.287,-4.698c-3.372,-3.132 -5.058,-7.408 -5.058,-12.828c0,-5.42 1.294,-11.172 3.884,-17.255c2.59,-6.082 6.113,-11.744 10.57,-16.983c4.456,-5.24 9.576,-9.064 15.357,-11.473c2.771,-1.205 5.421,-1.807 7.95,-1.807c2.529,0 4.878,0.723 7.046,2.168c2.048,1.686 3.072,3.553 3.072,5.601c0,7.227 -4.336,14.153 -13.009,20.778c-2.65,2.048 -6.384,3.884 -11.202,5.511c-4.818,1.626 -8.492,2.439 -11.021,2.439Zm30.354,-28.909c0,-2.409 -0.964,-3.613 -2.891,-3.613c-3.373,0 -8.492,4.155 -15.358,12.467c-4.095,5.059 -7.709,10.72 -10.84,16.983c2.047,0 5.028,-0.723 8.943,-2.168c3.915,-1.445 7.318,-3.373 10.208,-5.782c6.625,-5.661 9.938,-11.623 9.938,-17.887Z" style="fill:#dd9336;fill-rule:nonzero;"/><path d="M333.168,87.809c-14.815,26.017 -22.223,43.001 -22.223,50.951c0,3.132 1.144,4.697 3.433,4.697c6.143,0 14.394,-10.419 24.752,-31.257c0.723,-1.686 1.446,-2.349 2.168,-1.987c0.723,0.361 1.085,0.843 1.085,1.445c0,0.603 -0.241,1.325 -0.723,2.168c-6.384,12.889 -11.774,21.772 -16.171,26.65c-4.396,4.878 -8.793,7.318 -13.189,7.318c-4.397,0 -7.739,-1.687 -10.028,-5.059c-1.204,-1.566 -1.806,-3.704 -1.806,-6.414c0,-2.711 0.602,-5.993 1.806,-9.847c1.205,-3.855 4.517,-10.118 9.938,-18.791c1.324,-2.168 1.987,-3.884 1.987,-5.149c0,-1.265 -1.024,-1.897 -3.072,-1.897c-2.047,0 -5.962,2.71 -11.744,8.13c-8.672,7.95 -17.043,19.875 -25.114,35.774c-0.722,1.205 -1.535,1.958 -2.439,2.259c-0.903,0.301 -2.68,0.512 -5.33,0.632c-2.65,0.121 -4.396,0.422 -5.239,0.904c1.927,-3.855 5.721,-11.744 11.382,-23.669c10.118,-21.079 16.743,-33.124 19.875,-36.135c1.445,-1.446 3.433,-2.168 5.962,-2.168c0.482,0 1.717,0.18 3.704,0.542c1.987,0.361 3.463,0.421 4.427,0.18c-4.457,2.409 -11.744,13.732 -21.862,33.967c5.661,-6.986 10.81,-12.557 15.448,-16.712c4.637,-4.156 10.208,-8.01 16.712,-11.563c6.504,-3.554 11.262,-5.33 14.274,-5.33c0.722,0 1.385,0.12 1.987,0.361Z" style="fill:#dd9336;fill-rule:nonzero;"/><path d="M334.613,132.617c0,-9.998 4.818,-26.74 14.455,-50.228l-9.396,0c-0.602,0 -0.993,-0.332 -1.174,-0.994c-0.181,-0.663 -0.12,-1.325 0.181,-1.988c0.301,-0.662 0.752,-0.993 1.355,-0.993l10.84,0c4.337,-9.516 8.372,-17.466 12.106,-23.85c3.734,-6.384 7.167,-10.69 10.298,-12.918c3.132,-2.228 5.39,-3.343 6.776,-3.343c1.385,0 2.379,0.121 2.981,0.362c2.77,1.325 4.155,4.065 4.155,8.221c0,4.155 -1.385,9.184 -4.155,15.086c-2.771,5.902 -5.481,11.383 -8.131,16.442l8.673,0c0.602,0 0.994,0.331 1.174,0.993c0.181,0.663 0.121,1.325 -0.18,1.988c-0.302,0.662 -0.753,0.994 -1.355,0.994l-10.48,0c-6.625,11.202 -14.635,21.139 -24.03,29.811l-4.155,18.429c-0.362,1.566 -0.542,3.102 -0.542,4.608c0,1.505 0.421,3.041 1.264,4.607c0.844,1.566 2.168,2.349 3.975,2.349c2.048,0 4.337,-0.723 6.866,-2.168c5.782,-4.337 12.166,-13.431 19.152,-27.283c0.482,-1.084 1.054,-1.746 1.716,-1.987c0.663,-0.241 1.054,-0.09 1.175,0.452c0.12,0.542 -0.061,1.415 -0.542,2.619c-3.975,8.312 -7.107,14.214 -9.396,17.707c-6.504,10.479 -13.43,15.719 -20.778,15.719c-3.733,0 -6.805,-1.386 -9.214,-4.156c-2.409,-2.77 -3.614,-6.263 -3.614,-10.479Zm36.316,-54.203c7.95,-14.214 11.925,-24.091 11.925,-29.631c0,-2.409 -0.421,-3.614 -1.265,-3.614c-1.325,0 -3.342,1.927 -6.052,5.782c-2.71,3.854 -7.257,13.009 -13.641,27.463l9.033,0Zm-2.348,3.975l-8.492,0c-1.446,3.372 -4.698,11.382 -9.757,24.03c6.505,-6.746 12.587,-14.756 18.249,-24.03Z" style="fill:#dd9336;fill-rule:nonzero;"/><path d="M531.732,66.67c2.77,0 4.155,1.746 4.155,5.239c0,3.734 -1.505,7.227 -4.517,10.48c-5.299,5.902 -10.178,13.309 -14.634,22.223c-6.746,13.49 -10.118,25.656 -10.118,36.497c0,4.215 0.753,7.287 2.258,9.214c1.506,1.927 3.222,2.891 5.15,2.891c5.781,0 12.526,-4.698 20.235,-14.093c6.866,-8.793 12.106,-17.345 15.719,-25.656c0.964,-1.927 1.927,-2.77 2.891,-2.529c0.964,0.24 1.024,1.325 0.181,3.252c-4.939,10.961 -10.54,20.597 -16.803,28.908c-3.252,4.457 -7.288,8.161 -12.106,11.112c-4.818,2.951 -9.606,4.426 -14.363,4.426c-4.758,0 -8.342,-1.897 -10.751,-5.691c-2.409,-3.794 -3.613,-8.281 -3.613,-13.461c0,-5.179 0.632,-10.298 1.897,-15.357c1.265,-5.059 2.921,-8.974 4.969,-11.744c-12.166,14.575 -25.115,26.258 -38.846,35.051c-7.227,4.457 -15.237,7.107 -24.03,7.95c-0.843,0.121 -2.258,0.181 -4.246,0.181c-1.987,0 -4.366,-0.723 -7.137,-2.168c-8.672,-3.614 -13.008,-12.437 -13.008,-26.47c0,-14.032 4.577,-29.239 13.731,-45.62c4.818,-8.673 10.118,-16.322 15.9,-22.946c-8.071,-3.855 -14.093,-8.01 -18.068,-12.467c-2.891,-3.252 -4.336,-7.167 -4.336,-11.744c0,-4.577 0.903,-7.468 2.71,-8.673c1.204,-1.565 2.288,-1.867 3.252,-0.903c0.723,1.084 0.753,2.409 0.09,3.975c-0.662,1.566 -0.993,3.071 -0.993,4.517c0,3.252 1.746,6.866 5.239,10.84c3.493,3.975 8.613,7.529 15.358,10.66c28.306,-31.437 57.696,-47.156 88.17,-47.156c9.516,0 17.074,2.138 22.675,6.414c5.601,4.276 8.401,9.786 8.401,16.532c0,7.347 -4.095,14.454 -12.286,21.32c-4.095,3.613 -9.937,6.745 -17.525,9.395c-11.563,4.095 -25.325,6.143 -41.285,6.143c-15.96,0 -29.179,-1.687 -39.658,-5.059c-12.166,17.224 -20.537,31.528 -25.114,42.911c-4.578,11.382 -6.866,20.205 -6.866,26.469c0,1.325 0.06,2.529 0.18,3.613c1.446,9.998 6.505,14.996 15.177,14.996c9.757,0 21.079,-5.299 33.968,-15.899c9.154,-7.709 18.127,-16.863 26.92,-27.463c8.793,-10.6 15.328,-19.935 19.604,-28.005c4.276,-8.07 8.1,-12.105 11.473,-12.105Zm28.005,-38.484c0,-5.18 -2.138,-9.155 -6.414,-11.925c-4.276,-2.77 -10.148,-4.156 -17.616,-4.156c-7.468,0 -14.906,1.205 -22.314,3.614c-7.408,2.409 -14.334,5.962 -20.778,10.66c-6.444,4.697 -12.165,9.515 -17.164,14.454c-4.999,4.938 -10.389,10.841 -16.171,17.706c9.034,2.891 20.116,4.337 33.245,4.337c24.692,0 42.7,-3.975 54.022,-11.925c8.793,-6.143 13.19,-13.732 13.19,-22.765Z" style="fill:#dd9336;fill-rule:nonzero;"/><path d="M604.906,97.927c0,5.3 -1.385,11.142 -4.156,17.525c-2.77,6.384 -6.594,12.527 -11.473,18.43c-4.878,5.902 -10.81,9.937 -17.796,12.105c-2.65,0.723 -5.692,1.084 -9.124,1.084c-3.433,0 -7.197,-1.084 -11.293,-3.252l-17.164,42.82c-1.807,3.855 -3.493,6.384 -5.059,7.589c-1.566,1.204 -3.071,1.806 -4.517,1.806c-1.445,0 -2.319,0 -2.62,0c-0.301,0 -1.385,-0.18 -3.252,-0.542c-1.867,-0.361 -3.282,-0.482 -4.246,-0.361c2.65,-2.53 9.365,-14.545 20.146,-36.045c10.78,-21.501 16.893,-35.985 18.338,-43.453c-1.325,1.927 -2.589,2.951 -3.794,3.072c-0.723,0 -0.723,-0.693 0,-2.078c0.723,-1.385 1.927,-4.065 3.614,-8.04c2.168,-5.18 3.252,-9.968 3.252,-14.364c0,-4.397 -0.843,-6.956 -2.53,-7.679c7.227,-1.204 11.443,-1.776 12.648,-1.716c1.204,0.06 1.957,0.572 2.258,1.536c0.301,0.963 0.452,2.047 0.452,3.252c0,7.347 -1.686,15.538 -5.059,24.572l3.613,-5.782c4.337,-6.986 7.499,-11.503 9.486,-13.551c1.987,-2.047 4.125,-4.155 6.414,-6.323c3.493,-3.373 6.866,-5.059 10.118,-5.059c0.964,0 1.867,0.12 2.71,0.361c6.023,1.566 9.034,6.264 9.034,14.093Zm-8.673,-1.807c0,-1.927 -0.391,-3.704 -1.174,-5.33c-0.783,-1.626 -2.017,-2.439 -3.704,-2.439c-4.216,0 -9.124,3.915 -14.725,11.744c-5.601,7.829 -13.641,21.5 -24.12,41.014c1.566,1.565 3.734,2.348 6.504,2.348c2.77,0 6.685,-2.108 11.744,-6.323c8.07,-6.746 14.816,-15.117 20.236,-25.114c3.493,-6.505 5.239,-11.805 5.239,-15.9Z" style="fill:#dd9336;fill-rule:nonzero;"/><path d="M657.122,112.833c-3.975,7.648 -6.354,13.37 -7.137,17.164c-0.783,3.794 -1.175,6.866 -1.175,9.214c0,2.349 0.904,3.524 2.711,3.524c2.288,0 5.119,-2.108 8.491,-6.324c4.939,-6.143 9.817,-14.153 14.635,-24.03c0.482,-1.084 1.024,-1.686 1.626,-1.807c0.964,-0.361 1.446,0 1.446,1.084c0,0.603 -0.181,1.325 -0.542,2.168c-11.082,22.404 -20.417,33.606 -28.005,33.606c-3.493,0 -6.324,-1.686 -8.492,-5.059c-1.084,-1.806 -1.626,-4.215 -1.626,-7.227c0,-3.011 0.602,-6.685 1.807,-11.021c-9.636,15.538 -17.948,23.307 -24.934,23.307c-1.927,0 -3.674,-0.602 -5.239,-1.806c-3.614,-2.53 -5.421,-6.866 -5.421,-13.009c0,-11.804 5.119,-23.789 15.358,-35.955c5.781,-6.745 12.888,-11.142 21.32,-13.189c2.288,-0.603 4.456,-0.904 6.504,-0.904c5.541,0 10.238,1.928 14.093,5.782c1.204,1.325 1.566,2.59 1.084,3.794c-0.482,1.205 -1.506,1.686 -3.072,1.446c-1.325,-4.337 -4.215,-6.505 -8.672,-6.505c-5.179,0 -11.563,4.096 -19.152,12.286c-4.336,4.818 -8.371,10.479 -12.105,16.984c-4.698,7.829 -7.047,14.093 -7.047,18.79c0,4.698 1.506,7.047 4.517,7.047c7.227,0 16.683,-11.082 28.367,-33.245c2.288,-4.457 4.215,-7.498 5.781,-9.124c1.566,-1.626 3.554,-2.439 5.963,-2.439c0.481,0 1.716,0.18 3.703,0.542c1.988,0.361 3.463,0.421 4.427,0.181c-2.168,2.168 -5.24,7.076 -9.214,14.725Z" style="fill:#dd9336;fill-rule:nonzero;"/><path d="M698.858,74.62c0,5.42 -3.433,10.539 -10.299,15.357c2.409,0.121 5.631,0.181 9.667,0.181c4.035,0 9.124,-0.301 15.267,-0.904c0.241,0.362 0.361,1.325 0.361,2.891c0,1.566 -0.723,3.885 -2.168,6.956c-1.445,3.072 -2.74,5.722 -3.885,7.95c-1.144,2.228 -2.228,4.336 -3.252,6.324c-1.024,1.987 -2.168,4.426 -3.433,7.317c-1.264,2.891 -2.318,5.541 -3.161,7.95c-3.012,9.154 -2.53,13.731 1.445,13.731c5.059,0 12.527,-10.057 22.404,-30.173c0.843,-1.566 1.536,-2.168 2.078,-1.806c0.542,0.361 0.813,0.813 0.813,1.355c0,0.542 -0.783,2.409 -2.349,5.601c-1.566,3.192 -3.252,6.474 -5.059,9.846c-1.807,3.373 -4.637,7.288 -8.492,11.744c-4.577,5.541 -8.974,8.312 -13.189,8.312c-4.698,0 -7.95,-2.831 -9.757,-8.492c-0.361,-1.084 -0.542,-2.71 -0.542,-4.878c0,-2.169 0.693,-5.059 2.078,-8.673c1.385,-3.614 3.583,-8.01 6.595,-13.189c3.011,-5.18 4.697,-8.221 5.059,-9.125c0.361,-0.903 0.542,-1.776 0.542,-2.619c0,-3.734 -4.818,-5.722 -14.455,-5.963l-2.168,5.782c-7.588,19.874 -14.875,33.184 -21.862,39.93c-1.204,1.084 -1.806,0.722 -1.806,-1.085c0,-0.361 0.12,-0.782 0.361,-1.264c6.745,-8.914 12.587,-19.453 17.526,-31.619c4.938,-12.165 8.371,-23.729 10.298,-34.69c0.723,-3.734 2.409,-5.601 5.059,-5.601c2.65,0 4.577,1.687 5.782,5.059c0.361,1.084 0.542,2.349 0.542,3.795Z" style="fill:#dd9336;fill-rule:nonzero;"/><path d="M717.106,132.617c0,-9.998 4.818,-26.74 14.454,-50.228l-9.395,0c-0.602,0 -0.994,-0.332 -1.174,-0.994c-0.181,-0.663 -0.121,-1.325 0.18,-1.988c0.302,-0.662 0.753,-0.993 1.356,-0.993l10.84,0c4.336,-9.516 8.372,-17.466 12.106,-23.85c3.733,-6.384 7.166,-10.69 10.298,-12.918c3.132,-2.228 5.39,-3.343 6.775,-3.343c1.386,0 2.379,0.121 2.982,0.362c2.77,1.325 4.155,4.065 4.155,8.221c0,4.155 -1.385,9.184 -4.155,15.086c-2.771,5.902 -5.481,11.383 -8.131,16.442l8.673,0c0.602,0 0.993,0.331 1.174,0.993c0.181,0.663 0.121,1.325 -0.181,1.988c-0.301,0.662 -0.752,0.994 -1.355,0.994l-10.479,0c-6.625,11.202 -14.635,21.139 -24.03,29.811l-4.156,18.429c-0.361,1.566 -0.542,3.102 -0.542,4.608c0,1.505 0.422,3.041 1.265,4.607c0.843,1.566 2.168,2.349 3.975,2.349c2.048,0 4.336,-0.723 6.866,-2.168c5.781,-4.337 12.165,-13.431 19.152,-27.283c0.481,-1.084 1.053,-1.746 1.716,-1.987c0.662,-0.241 1.054,-0.09 1.174,0.452c0.121,0.542 -0.06,1.415 -0.542,2.619c-3.975,8.312 -7.106,14.214 -9.395,17.707c-6.504,10.479 -13.43,15.719 -20.778,15.719c-3.734,0 -6.805,-1.386 -9.214,-4.156c-2.409,-2.77 -3.614,-6.263 -3.614,-10.479Zm36.316,-54.203c7.95,-14.214 11.925,-24.091 11.925,-29.631c0,-2.409 -0.422,-3.614 -1.265,-3.614c-1.325,0 -3.342,1.927 -6.052,5.782c-2.711,3.854 -7.258,13.009 -13.642,27.463l9.034,0Zm-2.349,3.975l-8.491,0c-1.446,3.372 -4.698,11.382 -9.757,24.03c6.504,-6.746 12.587,-14.756 18.248,-24.03Z" style="fill:#dd9336;fill-rule:nonzero;"/></g></svg>